/* XPM */
static char *fefb6dc808ad4cacf956d5120c97f5c56UB0hJWsI4EfQHg5[] = {
/* columns rows colors chars-per-pixel */
"32 32 96 2 ",
"   c None",
".  c #007513",
"X  c #007817",
"o  c #007B1D",
"O  c #007E22",
"+  c #12891C",
"@  c #018024",
"#  c #068329",
"$  c #0B852B",
"%  c #128924",
"&  c #1E8F21",
"*  c #11862E",
"=  c #1C8E2C",
"-  c #158931",
";  c #1B8C34",
":  c #1E8E3A",
">  c #229122",
",  c #299429",
"<  c #30982C",
"1  c #218F3A",
"2  c #229135",
"3  c #2B9530",
"4  c #2F9831",
"5  c #24923D",
"6  c #2A943D",
"7  c #349A34",
"8  c #389C36",
"9  c #3C9E3D",
"0  c #41A03F",
"q  c #2B9542",
"w  c #2F9749",
"e  c #349A44",
"r  c #3E9F41",
"t  c #359A4A",
"y  c #3B9D4B",
"u  c #3D9E52",
"i  c #43A143",
"p  c #43A24D",
"a  c #4CA64C",
"s  c #43A156",
"d  c #4BA554",
"f  c #46A35B",
"g  c #4EA75B",
"h  c #54AA54",
"j  c #52A95C",
"k  c #5CAE5C",
"l  c #61B05F",
"z  c #4EA560",
"x  c #52A660",
"c  c #53A962",
"v  c #5CAE62",
"b  c #5DAE6A",
"n  c #64B263",
"m  c #69B467",
"M  c #61B16C",
"N  c #6CB66B",
"B  c #70B86E",
"V  c #66B371",
"C  c #6BB573",
"Z  c #6CB679",
"A  c #73B973",
"S  c #79BC77",
"D  c #70B779",
"F  c #75BA7A",
"G  c #7ABD7C",
"H  c #80C07E",
"J  c #7DBE82",
"K  c #80BF83",
"L  c #83C183",
"P  c #88C487",
"I  c #84C18A",
"U  c #8CC68B",
"Y  c #92C98F",
"T  c #84C191",
"R  c #8BC590",
"E  c #94CA94",
"W  c #94C99B",
"Q  c #9CCE9C",
"!  c #A1D09E",
"~  c #A4D2A4",
"^  c #A9D4A5",
"/  c #ACD6AB",
"(  c #B1D8AF",
")  c #ADD6B2",
"_  c #B4DAB4",
"`  c #B8DCB7",
"'  c #BCDEBC",
"]  c #BFDFC0",
"[  c #C0DFC4",
"{  c #C5E2C5",
"}  c #CBE5CB",
"|  c #D0E7D1",
" . c #D4EAD4",
".. c #DDEEDD",
"X. c #E0EFDE",
"o. c #E8F4E7",
/* pixels */
"                        ~ W U L u y m n                         ",
"                  ] ' s J ! U P N # - y h a 9                   ",
"               .} ' ^ $ - E U L L s o o $ 6 0 8 ,               ",
"            ..} ` ` I O o y E G G S 2 o O O @ ; 3 ,             ",
"          ..} ' ) _ M o # o c U S G v @ @ @ @ O @ % +           ",
"        ..} ] ` / ) t o @ O # C L A S y o @ O o O O $ %         ",
"      ..} ' _ / ^ Q - o @ @ O ; G S A A ; o $ 2 e i 9 4 &       ",
"     .} ' _ ) ^ ^ L O @ @ O @ o t H N j 6 g n n k h a 9 7 ,     ",
"    { ' _ / ~ Q ~ b o @ @ @ O @ O ; # O o p B v k h h i i 8     ",
"  { ` _ / ~ ~ Q ! t o # @ @ O @ @ O O @ O # v n n k h d a i 9   ",
"  _ / / ~ ! Q E E - O O @ @ @ @ @ @ @ @ @ o 1 A n n n h h a a   ",
"  / ~ Q Q E E Q G O O @ @ O @ @ @ @ O @ @ @ o d A n n k n n h   ",
"~ Q Q E E E U E V q - o O O O O @ @ O @ @ @ O $ m A B d y 5 - h ",
"W E E E Y U P E b $ C u O o @ O O @ @ @ @ @ @ o q A q O O o 6 m ",
"E U U U U U L U M X - L D 5 O O @ @ O @ O @ O o : q o O O O v H ",
"F S J G F G F L c O o ; S L g $ o @ @ O @ @ O t H C # O @ O # d ",
"v - @ $ $ # # $ # @ @ o # # $ n t o O @ @ @ @ C P K - O O o : b ",
"S N 6 @ o @ @ O O @ @ @ O O g U L g O O @ @ o 2 Y M o o * C Y E ",
"n m A j - o @ @ @ O @ @ @ O q F L P M $ o @ @ o C y : g D ! E E ",
"k l n N m t # o @ @ O @ @ @ o $ M P U G : o @ @ - b ^ J b ~ Q ~ ",
"  h k k l B k ; o @ @ @ @ O @ o O s P U U y o o t s s y . E )   ",
"  a h h k k m N q O @ @ @ @ @ @ O o 5 K E E f o Z U - U u w _   ",
"  r i a h h k m s o @ @ @ @ @ @ @ @ o $ M ! D b I / I ( ' W W   ",
"    8 i a h k n e o @ @ @ @ @ @ @ O @ O o g Z c * Z : ~ ] |     ",
"    , 7 i a a k t o @ @ O @ @ @ @ @ O O O O w w . x f z  .|     ",
"      > 7 0 a h e o @ @ @ @ @ @ O @ @ # O O : O @ ^ } T ]       ",
"        + 7 9 a 6 O @ O @ @ @ @ @ @ O O O O u O f } } o.        ",
"          > < a 6 O @ O @ O o o O O O O O O V * W  ...          ",
"            , 8 2 o O O O O $ 6 s M K V * o b z | ..            ",
"              < = # = 6 p v A L U Y Q ~ Q u Z ) X.              ",
"                  9 a k n N A S K U Y Q / ' '                   ",
"                        k n B G L Y W ~                         "
};
