/* XPM */
static char *_139bd398fa54541e602bc1dbaddefeaXxZ5v8rN1IW0YKdA[] = {
/* columns rows colors chars-per-pixel */
"16 16 181 2 ",
"   c None",
".  c #007616",
"X  c #007717",
"o  c #007819",
"O  c #00781A",
"+  c #007B1C",
"@  c #007B1D",
"#  c #007A1E",
"$  c #007B1E",
"%  c #007C1F",
"&  c #007D1F",
"*  c #007D20",
"=  c #007D21",
"-  c #007E21",
";  c #007E22",
":  c #007F22",
">  c #017F23",
",  c #027F22",
"<  c #077E21",
"1  c #007F24",
"2  c #057F24",
"3  c #008024",
"4  c #018024",
"5  c #018025",
"6  c #018125",
"7  c #028025",
"8  c #028125",
"9  c #028126",
"0  c #048024",
"q  c #048025",
"w  c #068025",
"e  c #068125",
"r  c #048226",
"t  c #088425",
"y  c #0A8329",
"u  c #098429",
"i  c #09842A",
"p  c #0A842A",
"a  c #0B852B",
"s  c #0F862D",
"d  c #0E872E",
"f  c #128921",
"g  c #12872F",
"h  c #148A2B",
"j  c #11882D",
"k  c #11882E",
"l  c #118830",
"z  c #138932",
"x  c #168A30",
"c  c #158A33",
"v  c #168B32",
"b  c #178B33",
"n  c #1A8D33",
"m  c #239224",
"M  c #279328",
"N  c #279329",
"B  c #2A952A",
"V  c #30982D",
"C  c #238E39",
"Z  c #289435",
"A  c #219039",
"S  c #21903C",
"D  c #25923C",
"F  c #25933F",
"G  c #26923F",
"H  c #29953F",
"J  c #389C3B",
"K  c #3C9E3C",
"L  c #41A03F",
"P  c #279240",
"I  c #2B9540",
"U  c #2A9542",
"Y  c #2C9643",
"T  c #2B9644",
"R  c #2F9747",
"E  c #339944",
"W  c #359A47",
"Q  c #3F9F40",
"!  c #369748",
"~  c #3B9D48",
"^  c #3E9E4D",
"/  c #3E9F4D",
"(  c #3C9E4E",
")  c #3D9E51",
"_  c #41A142",
"`  c #45A24B",
"'  c #47A34A",
"]  c #41A04E",
"[  c #4CA64D",
"{  c #45A253",
"}  c #43A155",
"|  c #46A357",
" . c #4FA750",
".. c #48A456",
"X. c #43A159",
"o. c #4AA558",
"O. c #49A45B",
"+. c #4BA55F",
"@. c #4FA75F",
"#. c #51A850",
"$. c #50A851",
"%. c #52A951",
"&. c #56AB55",
"*. c #50A858",
"=. c #52A95B",
"-. c #52A95F",
";. c #54AA5E",
":. c #59AC59",
">. c #5AAD59",
",. c #61B05F",
"<. c #50A863",
"1. c #57AB67",
"2. c #5BAD65",
"3. c #58AC66",
"4. c #5EAF67",
"5. c #58AB68",
"6. c #59AC69",
"7. c #63B162",
"8. c #63B165",
"9. c #68B465",
"0. c #6AB567",
"q. c #60B06A",
"w. c #65B269",
"e. c #65B26B",
"r. c #62B16C",
"t. c #65B26C",
"y. c #6AB568",
"u. c #6CB669",
"i. c #6CB66A",
"p. c #66B371",
"a. c #6DB674",
"s. c #73B970",
"d. c #70B779",
"f. c #73BA79",
"g. c #79BD7D",
"h. c #7ABD7E",
"j. c #7FBF7C",
"k. c #7CBE7E",
"l. c #72B981",
"z. c #7ABD84",
"x. c #81C081",
"c. c #80C083",
"v. c #83C183",
"b. c #81C086",
"n. c #86C385",
"m. c #8DC687",
"M. c #83C188",
"N. c #80C08A",
"B. c #8BC58F",
"V. c #8EC78D",
"C. c #90C88E",
"Z. c #8CC697",
"A. c #91C891",
"S. c #95CA93",
"D. c #96CB92",
"F. c #94CA97",
"G. c #99CC98",
"H. c #9ACD9B",
"J. c #9FCF9E",
"K. c #A0D09D",
"L. c #9ECEA4",
"P. c #A3D1A1",
"I. c #A6D3A6",
"U. c #A9D4A7",
"Y. c #A9D4A9",
"T. c #ADD6A9",
"R. c #ACD6AD",
"E. c #AFD7AE",
"W. c #AFD7AF",
"Q. c #B0D8AE",
"!. c #B5DAB7",
"~. c #BADCB7",
"^. c #BCDEBC",
"/. c #C1E0C1",
"(. c #C9E4C6",
"). c #C7E3C9",
"_. c #CFE7D0",
"`. c #D4EAD4",
"'. c #D7EBD7",
"]. c #D9ECD9",
"[. c #EFF7EB",
/* pixels */
"          N.B.C.( E %.          ",
"      _.(.+.E S.t.7 j Z N       ",
"    ]./.Q.P . <.m.{ O + t f     ",
"  `./.E.S.y 4 r t.w.G ~ ` J N   ",
"  ^.Y.Y.f.* 7 * u 7 b i.,.[ _   ",
"E.I.G.K.O.X 7 7 * 4 % W s.7.>.' ",
"J.G.A.S.} G 7 * 7 7 7 * =.^ v ] ",
"h.h.h.v.G U 4.d % 7 * g o.r O ^ ",
"-.v 4 u r % u 3.| % + U c.* S r.",
"0.8.H % 4 7 % Y n.q.0 % / -.b.T.",
"[ >.0.*.s % 7 % s f.c.z 1.6.<.E.",
"  _ #.9.A % 7 7 % % 3.p.1.z.!.  ",
"  B K &.n * 7 7 7 * 2 g W Z.).  ",
"    m L b + % + 1 1 < C L.[.    ",
"      V h j H ..a.N.X.l.'.      ",
"          #.i.j.C.P.~.          "
};
